<svg width="75" height="75" viewBox="0 0 75 75" fill="none" xmlns="http://www.w3.org/2000/svg">
<path d="M25.5 33.5625L33.5625 25.4062L28.3125 20.0625L24.1875 24.1875L18.9375 18.9375L22.9688 14.8125L18.75 10.5938L10.5938 18.75L25.5 33.5625ZM56.25 64.4062L64.4062 56.25L60.1875 52.0312L56.0625 56.0625L50.8125 50.8125L54.8438 46.6875L49.5 41.4375L41.4375 49.5L56.25 64.4062ZM19.6875 71.25H3.75V55.3125L20.1562 38.9062L0 18.75L18.75 0L39 20.25L53.1562 6C53.9062 5.25 54.75 4.6875 55.6875 4.3125C56.625 3.9375 57.5938 3.75 58.5938 3.75C59.5938 3.75 60.5625 3.9375 61.5 4.3125C62.4375 4.6875 63.2812 5.25 64.0312 6L69 11.0625C69.75 11.8125 70.3125 12.6562 70.6875 13.5938C71.0625 14.5312 71.25 15.5 71.25 16.5C71.25 17.5 71.0625 18.4531 70.6875 19.3594C70.3125 20.2656 69.75 21.0938 69 21.8438L54.8438 36.0938L75 56.25L56.25 75L36.0938 54.8438L19.6875 71.25ZM11.25 63.75H16.5L53.25 27.0938L47.9062 21.75L11.25 58.5V63.75ZM50.625 24.4688L47.9062 21.75L53.25 27.0938L50.625 24.4688Z" fill="#FEFEFE"/>
</svg>
