<svg width="75" height="75" viewBox="0 0 75 75" fill="none" xmlns="http://www.w3.org/2000/svg">
<path fill-rule="evenodd" clip-rule="evenodd" d="M41.25 48.75H48.75C50.8125 48.75 52.5781 48.0156 54.0469 46.5469C55.5156 45.0781 56.25 43.3125 56.25 41.25V35.625C56.25 34 55.7188 32.6562 54.6562 31.5938C53.5938 30.5312 52.25 30 50.625 30C52.25 30 53.5938 29.4688 54.6562 28.4062C55.7188 27.3438 56.25 26 56.25 24.375V18.75C56.25 16.6875 55.5156 14.9219 54.0469 13.4531C52.5781 11.9844 50.8125 11.25 48.75 11.25H41.25C39.1875 11.25 37.4219 11.9844 35.9531 13.4531C34.4844 14.9219 33.75 16.6875 33.75 18.75V24.375C33.75 26 34.2812 27.3438 35.3438 28.4062C36.4062 29.4688 37.75 30 39.375 30C37.75 30 36.4062 30.5312 35.3438 31.5938C34.2812 32.6562 33.75 34 33.75 35.625V41.25C33.75 43.3125 34.4844 45.0781 35.9531 46.5469C37.4219 48.0156 39.1875 48.75 41.25 48.75ZM48.75 18.75H41.25V26.25H48.75V18.75ZM41.25 33.75V41.25H48.75V33.75H41.25Z" fill="#FEFEFE"/>
<path fill-rule="evenodd" clip-rule="evenodd" d="M22.5 60C20.4375 60 18.6719 59.2656 17.2031 57.7969C15.7344 56.3281 15 54.5625 15 52.5V7.5C15 5.4375 15.7344 3.67188 17.2031 2.20312C18.6719 0.734375 20.4375 0 22.5 0H67.5C69.5625 0 71.3281 0.734375 72.7969 2.20312C74.2656 3.67188 75 5.4375 75 7.5V52.5C75 54.5625 74.2656 56.3281 72.7969 57.7969C71.3281 59.2656 69.5625 60 67.5 60H22.5ZM67.5 52.5H22.5V7.5H67.5V52.5Z" fill="#FEFEFE"/>
<path d="M7.5 75C5.4375 75 3.67188 74.2656 2.20312 72.7969C0.734375 71.3281 0 69.5625 0 67.5V15H7.5V67.5H60V75H7.5Z" fill="#FEFEFE"/>
</svg>
