<svg width="42" height="42" viewBox="0 0 42 42" fill="none" xmlns="http://www.w3.org/2000/svg">
<path d="M33.25 0H8.75C3.92 0 0 3.92 0 8.75V33.25C0 38.08 3.92 42 8.75 42H33.25C38.08 42 42 38.08 42 33.25V8.75C42 3.92 38.08 0 33.25 0ZM14 33.25H8.75V15.75H14V33.25ZM11.375 13.5275C9.695 13.5275 8.3475 12.145 8.3475 10.5C8.3475 8.855 9.695 7.4725 11.375 7.4725C13.055 7.4725 14.4025 8.855 14.4025 10.5C14.4025 12.145 13.055 13.5275 11.375 13.5275ZM35 33.25H29.75V23.45C29.75 21.105 29.6975 18.095 26.4775 18.095C23.1875 18.095 22.68 20.65 22.68 23.275V33.25H17.43V15.75H22.47V18.1475H22.54C23.24 16.835 24.955 15.4525 27.51 15.4525C32.83 15.4525 33.81 18.9525 33.81 23.485V33.25H35Z" fill="white"/>
</svg>
