<svg width="40" height="40" viewBox="0 0 40 40" fill="none" xmlns="http://www.w3.org/2000/svg">
<path fill-rule="evenodd" clip-rule="evenodd" d="M0 5.71429C0 2.55837 2.55837 0 5.71429 0H8.32691C9.96572 0 11.3942 1.11535 11.7917 2.70523L13.898 11.1303C14.2465 12.5244 13.7256 13.9915 12.576 14.8537L10.112 16.7017C9.85614 16.8936 9.80051 17.1746 9.87238 17.3708C12.0353 23.2752 16.7248 27.9647 22.6292 30.1276C22.8254 30.1995 23.1064 30.1439 23.2983 29.888L25.1463 27.424C26.0085 26.2744 27.4756 25.7535 28.8697 26.102L37.2948 28.2083C38.8847 28.6058 40 30.0343 40 31.6731V34.2857C40 37.4416 37.4416 40 34.2857 40H30C13.4315 40 0 26.5685 0 10V5.71429Z" fill="white"/>
</svg>
